# xmcd
#
# Track frame offsets:
#	150
#	11682
#	25318
#	37948
#	51571
#	65785
#	77874
#	91491
#	103649
#	116624
#	129262
#	140757
#	153028
#	165136
#	177819
#	190677
#	204817
#	218253
#
# Disc length: 3057
#
# Revision: 3
# Processed by: cddbd v1.5.1PL0 Copyright (c) Steve Scherf et al.
# Submitted via: VisiTrax 2.9.9.202 - For more info visit www.synapsa.com
# Normalized: r2:DSETVAR1
#
DISCID=e30bef12
DTITLE=Various Artist - Blues collection vol. 3 After Midnite - CD 3
DYEAR=2001
DGENRE=Blues
TTITLE0=T Bone  Walker - The Hustle Is On
TTITLE1=Tommy Douglas - Hot Sauce
TTITLE2=Clarence Samuels - Lollypop Mama
TTITLE3=Floyd Dixon - Empty Stocking Blues
TTITLE4=King Cole Trio - Sweet Lorraine
TTITLE5=Floyd Dixon - Let's Dance
TTITLE6=Jesse Price - My Baby Done Left Me
TTITLE7=Laura Rucker - Cryin' The Blues
TTITLE8=Jimmy Rogers - Luedella
TTITLE9=Floyd Dixon - You Played Me For A Fool
TTITLE10=Muddy Waters - Little Anna Mae
TTITLE11=Sonny Boy Williamson - New Early In The Morning
TTITLE12=John Lee Hooker - Miss Eloise
TTITLE13=Sonny Terry - Riff And Harmonica Jump
TTITLE14=Robert Nighthawk - My Sweet Lovin' Woman
TTITLE15=Cootie Williams and His Orchestra - Juice Headed Baby
TTITLE16=Jay McShann's Kansas City Stompers - On The Sunny Side Of The Street
TTITLE17=King Porter Orchestra - Chittlin' Ball
EXTD=
EXTT0=
EXTT1=
EXTT2=
EXTT3=
EXTT4=
EXTT5=
EXTT6=
EXTT7=
EXTT8=
EXTT9=
EXTT10=
EXTT11=
EXTT12=
EXTT13=
EXTT14=
EXTT15=
EXTT16=
EXTT17=
PLAYORDER=
